<svg width="600" height="750" viewBox="0 0 600 750" fill="none" xmlns="http://www.w3.org/2000/svg">
<path d="M281 162.706C213.776 171.963 162 229.639 162 299.408C162 369.177 213.776 426.852 281 436.109V395.565C235.97 386.718 202 347.031 202 299.408C202 251.785 235.97 212.097 281 203.25V162.706Z" fill="black"/>
<path d="M281 0C124.167 9.80161 0 140.105 0 299.408C0 458.712 124.167 589.014 281 598.815V558.723C146.277 548.992 40 436.612 40 299.408C40 162.204 146.277 49.8229 281 40.0928V0Z" fill="black"/>
<path d="M281 81.7217C168.946 91.3515 81 185.359 81 299.908C81 414.457 168.946 508.464 281 518.094V477.908C191.074 468.42 121 392.349 121 299.908C121 207.467 191.074 131.395 281 121.907V81.7217Z" fill="black"/>
<path d="M381 10.4707C361.456 5.20365 350.513 3.2851 331 0.990432V599.408H381V10.4707Z" fill="black"/>
<path d="M490 67.2329C471.749 52.3211 460.342 45.7459 440 34.0101V599.408H490V67.2329Z" fill="black"/>
<path d="M600 299.408C597.743 227.434 581.5 182.408 550 133.518V599.408H600V299.408Z" fill="black"/>
<path d="M98.5455 660.59H84.3636C83.8182 657.56 82.803 654.893 81.3182 652.59C79.8333 650.287 78.0152 648.332 75.8636 646.726C73.7121 645.12 71.303 643.908 68.6364 643.09C66 642.272 63.197 641.863 60.2273 641.863C54.8636 641.863 50.0606 643.211 45.8182 645.908C41.6061 648.605 38.2727 652.56 35.8182 657.772C33.3939 662.984 32.1818 669.348 32.1818 676.863C32.1818 684.438 33.3939 690.832 35.8182 696.045C38.2727 701.257 41.6212 705.196 45.8636 707.863C50.1061 710.529 54.8788 711.863 60.1818 711.863C63.1212 711.863 65.9091 711.469 68.5455 710.681C71.2121 709.863 73.6212 708.666 75.7727 707.09C77.9242 705.514 79.7424 703.59 81.2273 701.317C82.7424 699.014 83.7879 696.378 84.3636 693.408L98.5455 693.454C97.7879 698.029 96.3182 702.242 94.1364 706.09C91.9849 709.908 89.2121 713.211 85.8182 715.999C82.4545 718.757 78.6061 720.893 74.2727 722.408C69.9394 723.923 65.2121 724.681 60.0909 724.681C52.0303 724.681 44.8485 722.772 38.5455 718.954C32.2424 715.105 27.2727 709.605 23.6364 702.454C20.0303 695.302 18.2273 686.772 18.2273 676.863C18.2273 666.923 20.0455 658.393 23.6818 651.272C27.3182 644.12 32.2879 638.635 38.5909 634.817C44.8939 630.969 52.0606 629.045 60.0909 629.045C65.0303 629.045 69.6364 629.757 73.9091 631.181C78.2121 632.575 82.0758 634.635 85.5 637.363C88.9242 640.06 91.7576 643.363 94 647.272C96.2424 651.151 97.7576 655.59 98.5455 660.59Z" fill="black"/>
<path d="M127.852 630.317V723.408H114.261V630.317H127.852Z" fill="black"/>
<path d="M176.227 724.817C169.348 724.817 163.424 723.348 158.455 720.408C153.515 717.439 149.697 713.272 147 707.908C144.333 702.514 143 696.196 143 688.954C143 681.802 144.333 675.499 147 670.045C149.697 664.59 153.455 660.332 158.273 657.272C163.121 654.211 168.788 652.681 175.273 652.681C179.212 652.681 183.03 653.332 186.727 654.635C190.424 655.939 193.742 657.984 196.682 660.772C199.621 663.56 201.939 667.181 203.636 671.635C205.333 676.06 206.182 681.439 206.182 687.772V692.59H150.682V682.408H192.864C192.864 678.832 192.136 675.666 190.682 672.908C189.227 670.12 187.182 667.923 184.545 666.317C181.939 664.711 178.879 663.908 175.364 663.908C171.545 663.908 168.212 664.848 165.364 666.726C162.545 668.575 160.364 670.999 158.818 673.999C157.303 676.969 156.545 680.196 156.545 683.681V691.635C156.545 696.302 157.364 700.272 159 703.545C160.667 706.817 162.985 709.317 165.955 711.045C168.924 712.742 172.394 713.59 176.364 713.59C178.939 713.59 181.288 713.226 183.409 712.499C185.53 711.742 187.364 710.62 188.909 709.135C190.455 707.651 191.636 705.817 192.455 703.635L205.318 705.954C204.288 709.742 202.439 713.06 199.773 715.908C197.136 718.726 193.818 720.923 189.818 722.499C185.848 724.045 181.318 724.817 176.227 724.817Z" fill="black"/>
<path d="M221.261 723.408V653.59H234.398V664.681H235.125C236.398 660.923 238.64 657.969 241.852 655.817C245.095 653.635 248.761 652.545 252.852 652.545C253.701 652.545 254.701 652.575 255.852 652.635C257.034 652.696 257.958 652.772 258.625 652.863V665.863C258.08 665.711 257.11 665.545 255.716 665.363C254.322 665.151 252.928 665.045 251.534 665.045C248.322 665.045 245.458 665.726 242.943 667.09C240.458 668.423 238.489 670.287 237.034 672.681C235.58 675.045 234.852 677.742 234.852 680.772V723.408H221.261Z" fill="black"/>
<path d="M282.886 699.726L282.795 683.135H285.159L312.977 653.59H329.25L297.523 687.226H295.386L282.886 699.726ZM270.386 723.408V630.317H283.977V723.408H270.386ZM314.477 723.408L289.477 690.226L298.841 680.726L331.159 723.408H314.477Z" fill="black"/>
<path d="M393.955 670.635L381.636 672.817C381.121 671.242 380.303 669.742 379.182 668.317C378.091 666.893 376.606 665.726 374.727 664.817C372.848 663.908 370.5 663.454 367.682 663.454C363.833 663.454 360.621 664.317 358.045 666.045C355.47 667.742 354.182 669.939 354.182 672.635C354.182 674.969 355.045 676.848 356.773 678.272C358.5 679.696 361.288 680.863 365.136 681.772L376.227 684.317C382.652 685.802 387.439 688.09 390.591 691.181C393.742 694.272 395.318 698.287 395.318 703.226C395.318 707.408 394.106 711.135 391.682 714.408C389.288 717.651 385.939 720.196 381.636 722.045C377.364 723.893 372.409 724.817 366.773 724.817C358.955 724.817 352.576 723.151 347.636 719.817C342.697 716.454 339.667 711.681 338.545 705.499L351.682 703.499C352.5 706.923 354.182 709.514 356.727 711.272C359.273 712.999 362.591 713.863 366.682 713.863C371.136 713.863 374.697 712.939 377.364 711.09C380.03 709.211 381.364 706.923 381.364 704.226C381.364 702.045 380.545 700.211 378.909 698.726C377.303 697.242 374.833 696.12 371.5 695.363L359.682 692.772C353.167 691.287 348.348 688.923 345.227 685.681C342.136 682.438 340.591 678.332 340.591 673.363C340.591 669.242 341.742 665.635 344.045 662.545C346.348 659.454 349.53 657.045 353.591 655.317C357.652 653.56 362.303 652.681 367.545 652.681C375.091 652.681 381.03 654.317 385.364 657.59C389.697 660.832 392.561 665.181 393.955 670.635Z" fill="black"/>
<path d="M423.852 681.954V723.408H410.261V630.317H423.67V664.954H424.534C426.17 661.196 428.67 658.211 432.034 655.999C435.398 653.787 439.792 652.681 445.216 652.681C450.004 652.681 454.186 653.666 457.761 655.635C461.367 657.605 464.155 660.545 466.125 664.454C468.125 668.332 469.125 673.181 469.125 678.999V723.408H455.534V680.635C455.534 675.514 454.216 671.545 451.58 668.726C448.943 665.878 445.277 664.454 440.58 664.454C437.367 664.454 434.489 665.135 431.943 666.499C429.428 667.863 427.443 669.863 425.989 672.499C424.564 675.105 423.852 678.257 423.852 681.954Z" fill="black"/>
<path d="M487.261 723.408V653.59H500.852V723.408H487.261ZM494.125 642.817C491.761 642.817 489.731 642.029 488.034 640.454C486.367 638.848 485.534 636.939 485.534 634.726C485.534 632.484 486.367 630.575 488.034 628.999C489.731 627.393 491.761 626.59 494.125 626.59C496.489 626.59 498.504 627.393 500.17 628.999C501.867 630.575 502.716 632.484 502.716 634.726C502.716 636.939 501.867 638.848 500.17 640.454C498.504 642.029 496.489 642.817 494.125 642.817Z" fill="black"/>
<path d="M519.136 749.59V653.59H532.409V664.908H533.545C534.333 663.454 535.47 661.772 536.955 659.863C538.439 657.954 540.5 656.287 543.136 654.863C545.773 653.408 549.258 652.681 553.591 652.681C559.227 652.681 564.258 654.105 568.682 656.954C573.106 659.802 576.576 663.908 579.091 669.272C581.636 674.635 582.909 681.09 582.909 688.635C582.909 696.181 581.652 702.651 579.136 708.045C576.621 713.408 573.167 717.545 568.773 720.454C564.379 723.332 559.364 724.772 553.727 724.772C549.485 724.772 546.015 724.06 543.318 722.635C540.652 721.211 538.561 719.545 537.045 717.635C535.53 715.726 534.364 714.029 533.545 712.545H532.727V749.59H519.136ZM532.455 688.499C532.455 693.408 533.167 697.711 534.591 701.408C536.015 705.105 538.076 707.999 540.773 710.09C543.47 712.151 546.773 713.181 550.682 713.181C554.742 713.181 558.136 712.105 560.864 709.954C563.591 707.772 565.652 704.817 567.045 701.09C568.47 697.363 569.182 693.166 569.182 688.499C569.182 683.893 568.485 679.757 567.091 676.09C565.727 672.423 563.667 669.529 560.909 667.408C558.182 665.287 554.773 664.226 550.682 664.226C546.742 664.226 543.409 665.242 540.682 667.272C537.985 669.302 535.939 672.135 534.545 675.772C533.152 679.408 532.455 683.651 532.455 688.499Z" fill="black"/>
</svg>
